<svg width="20" height="18" viewBox="0 0 20 18" fill="none" xmlns="http://www.w3.org/2000/svg">
<path d="M18.75 7.75001H3.925L8.4625 2.30001C8.67467 2.04474 8.77675 1.71564 8.74628 1.3851C8.7158 1.05457 8.55527 0.749682 8.3 0.537509C8.04473 0.325336 7.71563 0.223258 7.3851 0.253733C7.05456 0.284208 6.74967 0.444738 6.5375 0.700009L0.2875 8.20001C0.245451 8.25966 0.207849 8.32233 0.175 8.38751C0.175 8.45001 0.175 8.48751 0.0875002 8.55001C0.0308421 8.69333 0.0011764 8.8459 0 9.00001C0.0011764 9.15412 0.0308421 9.30669 0.0875002 9.45001C0.0875002 9.51251 0.0874998 9.55001 0.175 9.61251C0.207849 9.67768 0.245451 9.74035 0.2875 9.80001L6.5375 17.3C6.65503 17.4411 6.8022 17.5546 6.96856 17.6324C7.13491 17.7101 7.31636 17.7503 7.5 17.75C7.79207 17.7506 8.07511 17.6489 8.3 17.4625C8.42657 17.3576 8.5312 17.2287 8.60789 17.0833C8.68458 16.9378 8.73183 16.7787 8.74692 16.615C8.76202 16.4513 8.74466 16.2862 8.69586 16.1292C8.64705 15.9722 8.56775 15.8263 8.4625 15.7L3.925 10.25H18.75C19.0815 10.25 19.3995 10.1183 19.6339 9.88389C19.8683 9.64947 20 9.33153 20 9.00001C20 8.66849 19.8683 8.35055 19.6339 8.11613C19.3995 7.88171 19.0815 7.75001 18.75 7.75001Z" fill="black"/>
</svg>
