<svg width="22" height="28" viewBox="0 0 22 28" fill="none" xmlns="http://www.w3.org/2000/svg">
<path d="M0.5 3.5C0.5 2.57174 0.868749 1.6815 1.52513 1.02513C2.1815 0.368749 3.07174 0 4 0L18 0C18.9283 0 19.8185 0.368749 20.4749 1.02513C21.1313 1.6815 21.5 2.57174 21.5 3.5V27.125C21.4999 27.2833 21.4569 27.4386 21.3756 27.5743C21.2942 27.7101 21.1775 27.8212 21.038 27.8959C20.8985 27.9707 20.7413 28.0061 20.5832 27.9985C20.4251 27.991 20.272 27.9407 20.1402 27.853L11 22.9268L1.85975 27.853C1.72798 27.9407 1.5749 27.991 1.41681 27.9985C1.25872 28.0061 1.10153 27.9707 0.961999 27.8959C0.822465 27.8212 0.705807 27.7101 0.62445 27.5743C0.543092 27.4386 0.500082 27.2833 0.5 27.125V3.5Z" fill="#4043DE"/>
</svg>
