<svg width="32" height="28" viewBox="0 0 32 28" fill="none" xmlns="http://www.w3.org/2000/svg">
<path d="M2.58331 12.0833H25.315L18.3575 3.72667C18.0321 3.33525 17.8756 2.83063 17.9224 2.32381C17.9691 1.817 18.2152 1.3495 18.6066 1.02417C18.9981 0.698834 19.5027 0.542315 20.0095 0.589043C20.5163 0.635771 20.9838 0.881918 21.3091 1.27333L30.8925 12.7733C30.957 12.8648 31.0146 12.9609 31.065 13.0608C31.065 13.1567 31.065 13.2142 31.1991 13.31C31.286 13.5298 31.3315 13.7637 31.3333 14C31.3315 14.2363 31.286 14.4702 31.1991 14.69C31.1991 14.7858 31.1991 14.8433 31.065 14.9392C31.0146 15.0391 30.957 15.1352 30.8925 15.2267L21.3091 26.7267C21.1289 26.943 20.9033 27.117 20.6482 27.2363C20.3931 27.3555 20.1149 27.4171 19.8333 27.4167C19.3855 27.4175 18.9515 27.2616 18.6066 26.9758C18.4126 26.8149 18.2521 26.6173 18.1345 26.3943C18.017 26.1713 17.9445 25.9273 17.9214 25.6763C17.8982 25.4252 17.9248 25.1721 17.9997 24.9314C18.0745 24.6906 18.1961 24.467 18.3575 24.2733L25.315 15.9167H2.58331C2.07498 15.9167 1.58747 15.7147 1.22802 15.3553C0.86858 14.9958 0.666647 14.5083 0.666647 14C0.666647 13.4917 0.86858 13.0042 1.22802 12.6447C1.58747 12.2853 2.07498 12.0833 2.58331 12.0833Z" fill="white"/>
</svg>
