<svg width="61" height="61" viewBox="0 0 61 61" fill="none" xmlns="http://www.w3.org/2000/svg">
<rect width="61" height="61" rx="13" fill="#36D850"/>
<path d="M28.9766 50.6953L18.75 26.875H8.73438L28.9766 50.6953Z" fill="white"/>
<path d="M41.2344 25.3125L33.9453 14.375H28.0547L20.7656 25.3125H41.2344Z" fill="white"/>
<path d="M41.5469 26.875H20.4531L31 51.4531L41.5469 26.875Z" fill="white"/>
<path d="M43.25 26.875L33.0234 50.6953L53.2656 26.875H43.25Z" fill="white"/>
<path d="M18.8906 25.3125L26.1797 14.375H17.4766C17.3573 14.3753 17.2396 14.4029 17.1326 14.4557C17.0256 14.5085 16.9322 14.5851 16.8594 14.6797L8.76562 25.3125H18.8906ZM43.1094 25.3125H53.2656L45.1406 14.6797C45.0678 14.5851 44.9744 14.5085 44.8674 14.4557C44.7604 14.4029 44.6427 14.3753 44.5234 14.375H35.8203L43.1094 25.3125Z" fill="white"/>
</svg>
