<svg width="28" height="26" viewBox="0 0 28 26" fill="none" xmlns="http://www.w3.org/2000/svg">
<path d="M26.7295 12.7948L14.6621 0.736213C14.5752 0.649154 14.472 0.580086 14.3584 0.53296C14.2448 0.485835 14.123 0.461578 14 0.461578C13.877 0.461578 13.7552 0.485835 13.6416 0.53296C13.528 0.580086 13.4248 0.649154 13.3379 0.736213L1.27051 12.7948C0.918945 13.1464 0.719727 13.6239 0.719727 14.122C0.719727 15.1561 1.56055 15.997 2.59473 15.997H3.86621V24.6014C3.86621 25.12 4.28516 25.5389 4.80371 25.5389H12.125V18.9764H15.4062V25.5389H23.1963C23.7148 25.5389 24.1338 25.12 24.1338 24.6014V15.997H25.4053C25.9033 15.997 26.3809 15.8007 26.7324 15.4462C27.4619 14.7138 27.4619 13.5272 26.7295 12.7948Z" fill="#C8C8C8"/>
</svg>
