<svg width="32" height="28" viewBox="0 0 32 28" fill="none" xmlns="http://www.w3.org/2000/svg">
<path d="M27.3334 16C28.3307 15.9854 29.2831 15.5827 29.9885 14.8773C30.6938 14.172 31.0965 13.2196 31.1111 12.2222V4.66667H21.6667V3.18389C21.6655 2.88126 21.6046 2.58185 21.4877 2.30273C21.3707 2.02362 21.1999 1.77027 20.9851 1.55716C20.7702 1.34405 20.5155 1.17535 20.2354 1.06069C19.9553 0.946023 19.6554 0.887647 19.3528 0.88889H12.6472C12.3446 0.887647 12.0447 0.946023 11.7647 1.06069C11.4846 1.17535 11.2299 1.34405 11.015 1.55716C10.8001 1.77027 10.6293 2.02362 10.5124 2.30273C10.3954 2.58185 10.3346 2.88126 10.3334 3.18389V4.66667H0.888916V12.2222C0.903774 13.2277 1.31302 14.1871 2.02847 14.8937C2.74393 15.6003 3.70834 15.9976 4.71392 16H8.49169V14.0356H10.3806V19.4189C10.3806 19.6694 10.2811 19.9096 10.104 20.0867C9.92684 20.2638 9.68662 20.3633 9.43614 20.3633C9.18566 20.3633 8.94543 20.2638 8.76832 20.0867C8.5912 19.9096 8.49169 19.6694 8.49169 19.4189V17.9456H4.72336C3.30568 17.9433 1.93931 17.4149 0.888916 16.4628V25.3878C0.888916 25.8887 1.08792 26.3692 1.44216 26.7234C1.79639 27.0777 2.27684 27.2767 2.7778 27.2767H29.2222C29.7232 27.2767 30.2037 27.0777 30.5579 26.7234C30.9121 26.3692 31.1111 25.8887 31.1111 25.3878V16.4628C30.0637 17.4196 28.6954 17.9487 27.2767 17.9456H25.4445V16H27.3334ZM12.2222 3.18389C12.2271 3.07448 12.274 2.97117 12.3532 2.89551C12.4324 2.81984 12.5377 2.77767 12.6472 2.77778H19.3528C19.4623 2.77767 19.5677 2.81984 19.6468 2.89551C19.726 2.97117 19.7729 3.07448 19.7778 3.18389V4.66667H12.2222V3.18389ZM23.5556 19.4189C23.5556 19.6694 23.4561 19.9096 23.279 20.0867C23.1018 20.2638 22.8616 20.3633 22.6111 20.3633C22.3607 20.3633 22.1204 20.2638 21.9433 20.0867C21.7662 19.9096 21.6667 19.6694 21.6667 19.4189V17.9456H12.2222V16H21.6667V14.0356H23.5556V19.4189Z" fill="#4043DE"/>
</svg>
