<svg width="31" height="28" viewBox="0 0 31 28" fill="none" xmlns="http://www.w3.org/2000/svg">
<path d="M1.0625 5H1.20894C1.43403 5.85758 1.94737 6.61799 2.66786 7.1611C3.38835 7.70421 4.27492 7.99906 5.1875 7.99906C6.10008 7.99906 6.98665 7.70421 7.70714 7.1611C8.42763 6.61799 8.94097 5.85758 9.16606 5H29.9375C30.211 5 30.4733 4.89464 30.6667 4.7071C30.8601 4.51957 30.9688 4.26521 30.9688 4C30.9688 3.73478 30.8601 3.48043 30.6667 3.29289C30.4733 3.10535 30.211 3 29.9375 3H9.16606C8.94097 2.14241 8.42763 1.382 7.70714 0.838887C6.98665 0.295776 6.10008 0.000930786 5.1875 0.000930786C4.27492 0.000930786 3.38835 0.295776 2.66786 0.838887C1.94737 1.382 1.43403 2.14241 1.20894 3H1.0625C0.788996 3 0.526693 3.10535 0.333296 3.29289C0.139899 3.48043 0.03125 3.73478 0.03125 4C0.03125 4.26521 0.139899 4.51957 0.333296 4.7071C0.526693 4.89464 0.788996 5 1.0625 5ZM5.1875 2C5.59542 2 5.99419 2.11729 6.33336 2.33706C6.67254 2.55682 6.9369 2.86918 7.093 3.23463C7.24911 3.60008 7.28995 4.00221 7.21037 4.39018C7.13079 4.77814 6.93435 5.1345 6.64591 5.41421C6.35746 5.69391 5.98996 5.8844 5.58987 5.96157C5.18979 6.03874 4.77509 5.99913 4.39822 5.84775C4.02134 5.69638 3.69922 5.44003 3.47259 5.11114C3.24596 4.78224 3.125 4.39556 3.125 4C3.125 3.46956 3.3423 2.96085 3.72909 2.58578C4.11589 2.21071 4.64049 2 5.1875 2ZM29.9375 13H29.7911C29.566 12.1424 29.0526 11.382 28.3321 10.8389C27.6116 10.2958 26.7251 10.0009 25.8125 10.0009C24.8999 10.0009 24.0134 10.2958 23.2929 10.8389C22.5724 11.382 22.059 12.1424 21.8339 13H1.0625C0.788996 13 0.526693 13.1054 0.333296 13.2929C0.139899 13.4804 0.03125 13.7348 0.03125 14C0.03125 14.2652 0.139899 14.5196 0.333296 14.7071C0.526693 14.8946 0.788996 15 1.0625 15H21.8339C22.059 15.8576 22.5724 16.618 23.2929 17.1611C24.0134 17.7042 24.8999 17.9991 25.8125 17.9991C26.7251 17.9991 27.6116 17.7042 28.3321 17.1611C29.0526 16.618 29.566 15.8576 29.7911 15H29.9375C30.211 15 30.4733 14.8946 30.6667 14.7071C30.8601 14.5196 30.9688 14.2652 30.9688 14C30.9688 13.7348 30.8601 13.4804 30.6667 13.2929C30.4733 13.1054 30.211 13 29.9375 13ZM25.8125 16C25.4046 16 25.0058 15.8827 24.6666 15.6629C24.3275 15.4432 24.0631 15.1308 23.907 14.7654C23.7509 14.3999 23.71 13.9978 23.7896 13.6098C23.8692 13.2219 24.0656 12.8655 24.3541 12.5858C24.6425 12.3061 25.01 12.1156 25.4101 12.0384C25.8102 11.9613 26.2249 12.0009 26.6018 12.1522C26.9787 12.3036 27.3008 12.56 27.5274 12.8889C27.754 13.2178 27.875 13.6044 27.875 14C27.875 14.5304 27.6577 15.0391 27.2709 15.4142C26.8841 15.7893 26.3595 16 25.8125 16ZM29.9375 23H19.4786C19.2535 22.1424 18.7401 21.382 18.0196 20.8389C17.2991 20.2958 16.4126 20.0009 15.5 20.0009C14.5874 20.0009 13.7009 20.2958 12.9804 20.8389C12.2599 21.382 11.7465 22.1424 11.5214 23H1.0625C0.788996 23 0.526693 23.1054 0.333296 23.2929C0.139899 23.4804 0.03125 23.7348 0.03125 24C0.03125 24.2652 0.139899 24.5196 0.333296 24.7071C0.526693 24.8946 0.788996 25 1.0625 25H11.5214C11.7465 25.8576 12.2599 26.618 12.9804 27.1611C13.7009 27.7042 14.5874 27.9991 15.5 27.9991C16.4126 27.9991 17.2991 27.7042 18.0196 27.1611C18.7401 26.618 19.2535 25.8576 19.4786 25H29.9375C30.211 25 30.4733 24.8946 30.6667 24.7071C30.8601 24.5196 30.9688 24.2652 30.9688 24C30.9688 23.7348 30.8601 23.4804 30.6667 23.2929C30.4733 23.1054 30.211 23 29.9375 23ZM15.5 26C15.0921 26 14.6933 25.8827 14.3541 25.6629C14.015 25.4432 13.7506 25.1308 13.5945 24.7654C13.4384 24.3999 13.3975 23.9978 13.4771 23.6098C13.5567 23.2219 13.7531 22.8655 14.0416 22.5858C14.33 22.3061 14.6975 22.1156 15.0976 22.0384C15.4977 21.9613 15.9124 22.0009 16.2893 22.1522C16.6662 22.3036 16.9883 22.56 17.2149 22.8889C17.4415 23.2178 17.5625 23.6044 17.5625 24C17.5625 24.5304 17.3452 25.0391 16.9584 25.4142C16.5716 25.7893 16.047 26 15.5 26Z" fill="black"/>
</svg>
