<svg width="61" height="61" viewBox="0 0 61 61" fill="none" xmlns="http://www.w3.org/2000/svg">
<rect width="61" height="61" rx="13" fill="#36BBD8"/>
<path d="M16 27.6516V45.6129C16 48.0387 17.987 50 20.4155 50H41.5845C44.013 50 46 48.0387 46 45.6129V27.6516C46 25.2387 44.013 23.2645 41.5845 23.2645H41.2078V20.1419C41.2078 14.5419 36.6234 10 31 10C25.3766 10 20.7922 14.5419 20.7922 20.1419V23.2645H20.4156C17.987 23.2645 16 25.2387 16 27.6516ZM31 33.4839C32.7532 33.4839 34.1688 34.8903 34.1688 36.6323C34.1688 38.3742 32.7532 39.7806 31 39.7806C29.2468 39.7806 27.8312 38.3742 27.8312 36.6323C27.8312 34.8903 29.2468 33.4839 31 33.4839ZM24.6883 20.1419C24.6883 16.6839 27.5195 13.871 31 13.871C34.4805 13.871 37.3117 16.6839 37.3117 20.1419V23.2645H24.6883V20.1419H24.6883Z" fill="white"/>
</svg>
