<svg width="19" height="29" viewBox="0 0 19 29" fill="none" xmlns="http://www.w3.org/2000/svg">
<path d="M14.9375 1.8125C15.4182 1.8125 15.8792 2.00346 16.2191 2.34337C16.559 2.68328 16.75 3.14429 16.75 3.625V25.375C16.75 25.8557 16.559 26.3167 16.2191 26.6566C15.8792 26.9965 15.4182 27.1875 14.9375 27.1875H4.0625C3.58179 27.1875 3.12078 26.9965 2.78087 26.6566C2.44096 26.3167 2.25 25.8557 2.25 25.375V3.625C2.25 3.14429 2.44096 2.68328 2.78087 2.34337C3.12078 2.00346 3.58179 1.8125 4.0625 1.8125H14.9375ZM4.0625 0C3.10109 0 2.17906 0.381919 1.49924 1.06174C0.819418 1.74156 0.4375 2.66359 0.4375 3.625V25.375C0.4375 26.3364 0.819418 27.2584 1.49924 27.9383C2.17906 28.6181 3.10109 29 4.0625 29H14.9375C15.8989 29 16.8209 28.6181 17.5008 27.9383C18.1806 27.2584 18.5625 26.3364 18.5625 25.375V3.625C18.5625 2.66359 18.1806 1.74156 17.5008 1.06174C16.8209 0.381919 15.8989 0 14.9375 0L4.0625 0Z" fill="#7E7E7E"/>
<path d="M9.5 25.375C9.98071 25.375 10.4417 25.184 10.7816 24.8441C11.1215 24.5042 11.3125 24.0432 11.3125 23.5625C11.3125 23.0818 11.1215 22.6208 10.7816 22.2809C10.4417 21.941 9.98071 21.75 9.5 21.75C9.0193 21.75 8.55828 21.941 8.21837 22.2809C7.87846 22.6208 7.6875 23.0818 7.6875 23.5625C7.6875 24.0432 7.87846 24.5042 8.21837 24.8441C8.55828 25.184 9.0193 25.375 9.5 25.375Z" fill="#7E7E7E"/>
</svg>
