<svg width="117" height="117" viewBox="0 0 117 117" fill="none" xmlns="http://www.w3.org/2000/svg">
<path d="M4.4301 47.477C1.9069 49.8532 0.430995 53.1344 0.327057 56.5988C0.223119 60.0632 1.49967 63.427 3.87587 65.9502L47.3934 112.16C52.3424 117.415 60.6114 117.663 65.8666 112.714L112.076 69.1964C117.331 64.2473 117.579 55.9784 112.63 50.7232L69.1128 4.51371C64.1637 -0.741483 55.8948 -0.989568 50.6396 3.95949L4.4301 47.477ZM8.40621 61.6838C7.16153 60.3621 6.49286 58.6001 6.54731 56.7854C6.60175 54.9707 7.37485 53.252 8.69652 52.0073L54.906 8.48983C56.2277 7.24514 57.9896 6.57648 59.8043 6.63093C61.619 6.68537 63.3377 7.45846 64.5824 8.78014L108.1 54.9896C109.345 56.3113 110.013 58.0733 109.959 59.888C109.904 61.7026 109.131 63.4214 107.81 64.666L61.6002 108.184C60.2785 109.428 58.5165 110.097 56.7018 110.042C54.8871 109.988 53.1684 109.215 51.9237 107.893L8.40621 61.6838ZM33.1471 73.4319C32.2419 72.4707 31.7556 71.1892 31.7952 69.8695C31.8348 68.5497 32.397 67.2997 33.3582 66.3945C34.3194 65.4893 35.6009 65.003 36.9207 65.0426C38.2404 65.0821 39.4904 65.6444 40.3956 66.6056C41.3009 67.5668 41.7872 68.8483 41.7476 70.168C41.708 71.4878 41.1457 72.7378 40.1845 73.643C39.2233 74.5482 37.9418 75.0345 36.6221 74.995C35.3023 74.9554 34.0523 74.3931 33.1471 73.4319ZM29.0918 61.8641C26.9291 63.9009 25.664 66.7134 25.5749 69.6828C25.4858 72.6523 26.58 75.5356 28.6167 77.6983C30.6535 79.861 33.466 81.1261 36.4354 81.2152C39.4049 81.3043 42.2882 80.2101 44.4509 78.1734C46.6137 76.1366 47.8787 73.3241 47.9678 70.3547C48.0569 67.3852 46.9627 64.5019 44.926 62.3392C42.8892 60.1765 40.0768 58.9114 37.1073 58.8223C34.1378 58.7332 31.2545 59.8274 29.0918 61.8641ZM53.837 88.1401C52.8758 89.0453 52.3136 90.2953 52.274 91.6151C52.2344 92.9349 52.7207 94.2163 53.6259 95.1775C54.5311 96.1387 55.7811 96.701 57.1009 96.7406C58.4207 96.7802 59.7021 96.2939 60.6633 95.3887C61.6245 94.4834 62.1868 93.2335 62.2264 91.9137C62.266 90.5939 61.7797 89.3125 60.8745 88.3512C59.9692 87.39 58.7192 86.8278 57.3995 86.7882C56.0797 86.7486 54.7983 87.2349 53.837 88.1401ZM49.0956 99.4439C47.0588 97.2812 45.9646 94.398 46.0537 91.4285C46.1428 88.459 47.4079 85.6465 49.5706 83.6098C51.7334 81.573 54.6166 80.4788 57.5861 80.5679C60.5556 80.657 63.368 81.9221 65.4048 84.0848C67.4415 86.2476 68.5357 89.1308 68.4466 92.1003C68.3575 95.0698 67.0925 97.8823 64.9297 99.919C62.767 101.956 59.8838 103.05 56.9143 102.961C53.9448 102.872 51.1323 101.607 49.0956 99.4439ZM48.2556 54.0746C47.6548 54.6404 47.3034 55.4216 47.2786 56.2465C47.2539 57.0714 47.5578 57.8723 48.1236 58.473C48.6894 59.0738 49.4706 59.4252 50.2955 59.4499C51.1203 59.4747 51.9212 59.1707 52.522 58.605L78.798 33.8597C79.3987 33.294 79.7501 32.5127 79.7749 31.6879C79.7996 30.863 79.4957 30.0621 78.9299 29.4614C78.3642 28.8606 77.5829 28.5092 76.7581 28.4844C75.9332 28.4597 75.1323 28.7636 74.5315 29.3294L48.2556 54.0746ZM68.6024 80.2187C67.4249 78.9683 67.484 76.9978 68.7344 75.8203L95.0104 51.075C95.6111 50.5093 96.412 50.2053 97.2369 50.2301C98.0617 50.2548 98.843 50.6062 99.4087 51.207C99.9745 51.8077 100.278 52.6086 100.254 53.4335C100.229 54.2584 99.8775 55.0396 99.2768 55.6054L73.0008 80.3506C71.7504 81.5281 69.78 81.469 68.6024 80.2187ZM12.9629 56.5377C12.3622 57.1034 12.0108 57.8847 11.986 58.7095C11.9613 59.5344 12.2652 60.3353 12.831 60.9361C13.3967 61.5368 14.178 61.8882 15.0028 61.913C15.8277 61.9377 16.6286 61.6338 17.2294 61.068L63.4388 17.5505C64.0396 16.9847 64.391 16.2035 64.4158 15.3786C64.4405 14.5538 64.1366 13.7529 63.5708 13.1521C63.005 12.5514 62.2238 12.2 61.3989 12.1752C60.5741 12.1505 59.7732 12.4544 59.1724 13.0202L12.9629 56.5377Z" fill="#F8F8F8"/>
</svg>
