<svg width="33" height="33" viewBox="0 0 33 33" fill="none" xmlns="http://www.w3.org/2000/svg">
<path d="M16.5 32.75C7.52513 32.75 0.25 25.4749 0.25 16.5C0.25 7.52513 7.52513 0.25 16.5 0.25C25.4749 0.25 32.75 7.52513 32.75 16.5C32.75 25.4749 25.4749 32.75 16.5 32.75ZM10.8125 19.75V23H14.875V26.25H18.125V23H19.75C20.8274 23 21.8608 22.572 22.6226 21.8101C23.3845 21.0483 23.8125 20.0149 23.8125 18.9375C23.8125 17.8601 23.3845 16.8267 22.6226 16.0649C21.8608 15.303 20.8274 14.875 19.75 14.875H13.25C13.0345 14.875 12.8278 14.7894 12.6755 14.637C12.5231 14.4847 12.4375 14.278 12.4375 14.0625C12.4375 13.847 12.5231 13.6403 12.6755 13.488C12.8278 13.3356 13.0345 13.25 13.25 13.25H22.1875V10H18.125V6.75H14.875V10H13.25C12.1726 10 11.1392 10.428 10.3774 11.1899C9.61551 11.9517 9.1875 12.9851 9.1875 14.0625C9.1875 15.1399 9.61551 16.1733 10.3774 16.9351C11.1392 17.697 12.1726 18.125 13.25 18.125H19.75C19.9655 18.125 20.1722 18.2106 20.3245 18.363C20.4769 18.5153 20.5625 18.722 20.5625 18.9375C20.5625 19.153 20.4769 19.3597 20.3245 19.512C20.1722 19.6644 19.9655 19.75 19.75 19.75H10.8125Z" fill="#4043DE"/>
</svg>
