<svg width="390" height="417" viewBox="0 0 390 417" fill="none" xmlns="http://www.w3.org/2000/svg">
<g clip-path="url(#clip0_11_63)">
<path opacity="0.18" d="M224.63 41.4555C198.748 56.7176 169.471 64.9598 140.64 73.4255C111.808 81.8913 82.6429 90.804 57.4575 107.198C32.2722 123.591 11.1647 148.618 6.25732 178.311C4.4519 189.264 4.86317 200.6 1.72633 211.252C-4.37308 232.004 -22.7271 246.826 -31.7333 266.468C-44.2597 293.639 -36.822 326.832 -19.6739 351.342C2.80679 383.43 39.933 402.967 78.1886 411.216C116.444 419.466 156.108 417.503 195.074 413.927C238.62 409.875 282.648 403.659 322.813 386.266C362.979 368.874 399.352 339.041 416.438 298.689C427.667 272.147 435.377 242.398 430.644 213.983C393.81 -7.20844 241.039 31.7884 224.63 41.4555Z" fill="#5558FB"/>
<path d="M138.13 102.937C137.464 102.904 136.8 103.02 136.185 103.278C135.569 103.535 135.02 103.927 134.575 104.425C134.028 105.18 133.683 106.062 133.571 106.988C133.118 109.752 133.403 112.587 134.397 115.205C135.391 117.823 137.059 120.131 139.231 121.894C140.674 123.032 142.48 123.941 144.292 123.626C144.5 123.608 144.696 123.522 144.85 123.382C145.006 123.168 145.078 122.905 145.052 122.641C145.198 117.752 145.317 112.751 143.442 108.266C142.131 105.144 142.034 102.986 138.13 102.937Z" fill="url(#paint0_linear_11_63)"/>
<path d="M251.042 102.937C251.709 102.904 252.375 103.02 252.991 103.278C253.607 103.535 254.158 103.927 254.604 104.425C255.145 105.183 255.487 106.064 255.601 106.988C256.056 109.752 255.773 112.586 254.78 115.205C253.787 117.823 252.12 120.131 249.948 121.894C248.505 123.032 246.693 123.941 244.88 123.626C244.673 123.607 244.477 123.521 244.323 123.382C244.17 123.167 244.098 122.904 244.12 122.641C243.974 117.752 243.863 112.751 245.738 108.266C247.041 105.144 247.139 102.986 251.042 102.937Z" fill="url(#paint1_linear_11_63)"/>
<path d="M405.877 344.476H-7.65633C-20.2607 344.476 -30.4786 354.714 -30.4786 367.344V393.936C-30.4786 406.566 -20.2607 416.804 -7.65633 416.804H405.877C418.481 416.804 428.699 406.566 428.699 393.936V367.344C428.699 354.714 418.481 344.476 405.877 344.476Z" fill="#5558FB"/>
<path d="M405.877 344.476H-7.65633C-20.2607 344.476 -30.4786 354.714 -30.4786 367.344V393.936C-30.4786 406.566 -20.2607 416.804 -7.65633 416.804H405.877C418.481 416.804 428.699 406.566 428.699 393.936V367.344C428.699 354.714 418.481 344.476 405.877 344.476Z" fill="url(#paint2_linear_11_63)"/>
<path d="M146.035 150.015C146.035 150.015 92.3601 146.865 68.8965 175.573C45.4329 204.281 57.6666 339.6 57.6666 339.6L305.63 345.258L315.724 192.162C316.721 159.871 278.047 149.869 237.261 150.001H235.128C163.336 150.735 146.035 150.015 146.035 150.015Z" fill="#5558FB"/>
<path d="M146.035 150.015C146.035 150.015 92.3601 146.865 68.8965 175.573C45.4329 204.281 57.6666 339.6 57.6666 339.6L305.63 345.258L315.724 192.162C316.721 159.871 278.047 149.869 237.261 150.001H235.128C163.336 150.735 146.035 150.015 146.035 150.015Z" fill="url(#paint3_linear_11_63)"/>
<path d="M102.956 156.413C102.956 156.413 58.789 156.413 16.588 266.615L70.7229 291.229L98.0204 257.157L102.956 156.413ZM283.568 156.413C283.568 156.413 327.735 156.413 369.936 266.615L315.801 291.229L288.503 257.157L283.568 156.413Z" fill="#5558FB"/>
<path opacity="0.24" d="M42.7423 269.017C41.5526 268.469 40.4852 267.686 39.6038 266.716C38.7223 265.745 38.0449 264.607 37.6117 263.368C37.1785 262.13 36.9984 260.817 37.0823 259.508C37.1661 258.198 37.5122 256.919 38.0997 255.746C49.1972 233.597 83.1796 181.706 106.246 178.646C135.14 174.798 168.076 170.767 168.076 170.767C168.076 170.767 268.163 168.937 284.788 180.546C297.802 189.627 327.309 228.379 343.384 249.886C347.099 254.866 345.712 264.002 340.08 266.65L300.347 298.927C299.044 299.535 297.89 300.422 296.966 301.525L270.303 333.46C269.333 334.622 268.107 335.542 266.722 336.148C265.337 336.754 263.831 337.03 262.321 336.953L122.3 330.031C120.371 329.939 118.513 329.276 116.961 328.126C115.409 326.976 114.232 325.39 113.579 323.57L96.9887 277.427C96.3587 275.652 95.2305 274.097 93.7397 272.95C92.2488 271.802 90.4588 271.11 88.5849 270.957C86.711 270.804 84.833 271.197 83.1766 272.089C81.5202 272.98 80.1561 274.332 79.2481 275.981C78.0491 278.147 76.0749 279.775 73.7241 280.539C71.3733 281.303 68.821 281.144 66.5823 280.095L42.7423 269.017Z" fill="white"/>
<path d="M410.178 330.694H-3.35536C-15.9597 330.694 -26.1776 340.933 -26.1776 353.563V380.155C-26.1776 392.785 -15.9597 403.023 -3.35536 403.023H410.178C422.782 403.023 433 392.785 433 380.155V353.563C433 340.933 422.782 330.694 410.178 330.694Z" fill="#5558FB"/>
<path opacity="0.18" d="M8.33462 356.811C10.0703 357.901 12.1197 357.949 14.0785 357.984L50.2428 358.501C47.8059 359.828 45.534 361.439 43.4742 363.3C35.4578 370.522 40.2746 383.836 51.0514 384.206C132.923 387 214.864 386.029 296.757 385.058C309.541 384.904 322.374 384.751 335.096 383.444C336.928 383.262 338.68 382.599 340.174 381.521C341.668 380.443 342.851 378.989 343.604 377.305C344.358 375.622 344.654 373.769 344.464 371.934C344.273 370.099 343.603 368.347 342.52 366.855C342.262 366.194 342.159 365.482 342.22 364.775C342.281 364.067 342.503 363.383 342.87 362.776C343.236 362.168 343.737 361.653 344.334 361.27C344.931 360.888 345.608 360.648 346.312 360.569C359.682 359.011 373.498 359.507 386.742 357.237C389.356 356.79 392.409 355.966 393.469 353.046C394.166 351.237 393.769 349.134 393.197 347.283C390.513 338.671 383.536 332.769 376.154 330.129C368.771 327.488 360.922 327.628 353.22 327.782L50.5077 333.879C40.0516 334.089 23.2172 330.387 13.4093 334.864C7.2681 337.679 -0.392762 351.342 8.33462 356.811Z" fill="#1D2741"/>
<path d="M72.8071 368.189L61.9676 338.07C61.9676 338.07 57.5342 332.943 69.3566 330.666C81.179 328.389 309.931 330.666 309.931 330.666L315.257 368.161L72.8071 368.189Z" fill="url(#paint4_linear_11_63)"/>
<path d="M315.257 368.189V371.291C315.257 373.769 314.274 376.146 312.525 377.899C310.776 379.652 308.404 380.636 305.93 380.636H82.1688C79.6952 380.636 77.3229 379.652 75.5737 377.899C73.8246 376.146 72.842 373.769 72.842 371.291V368.189C72.8383 366.961 73.077 365.743 73.5443 364.607C74.0116 363.471 74.6984 362.439 75.5651 361.57C76.4318 360.701 77.4614 360.012 78.5947 359.543C79.728 359.074 80.9426 358.834 82.1688 358.836H305.93C307.156 358.834 308.371 359.074 309.504 359.543C310.637 360.012 311.667 360.701 312.534 361.57C313.4 362.439 314.087 363.471 314.555 364.607C315.022 365.743 315.261 366.961 315.257 368.189Z" fill="url(#paint5_linear_11_63)"/>
<path d="M314.867 365.486C314.285 367.407 313.102 369.09 311.493 370.286C309.884 371.482 307.934 372.128 305.93 372.129H82.1688C80.1652 372.128 78.2149 371.482 76.6058 370.286C74.9966 369.09 73.8139 367.407 73.2323 365.486C73.8127 363.564 74.9949 361.879 76.6041 360.682C78.2134 359.484 80.1644 358.837 82.1688 358.837H305.93C307.935 358.837 309.885 359.484 311.495 360.682C313.104 361.879 314.286 363.564 314.867 365.486Z" fill="#5558FB"/>
<path d="M72.8071 368.189L61.9676 338.07C61.9676 338.07 57.5342 332.943 69.3566 330.666C81.179 328.389 309.931 330.666 309.931 330.666L315.257 368.161L72.8071 368.189Z" fill="url(#paint6_linear_11_63)"/>
<path d="M314.867 365.486C314.285 367.407 313.102 369.09 311.493 370.286C309.884 371.482 307.934 372.128 305.93 372.129H82.1688C80.1652 372.128 78.2149 371.482 76.6058 370.286C74.9966 369.09 73.8139 367.407 73.2323 365.486C73.8127 363.564 74.9949 361.879 76.6041 360.682C78.2134 359.484 80.1644 358.837 82.1688 358.837L309.966 355.051C314.149 355.051 313.702 361.637 314.867 365.486Z" fill="url(#paint7_linear_11_63)"/>
<path d="M309.931 215.988V345.258C309.931 348.859 308.504 352.313 305.962 354.859C303.421 357.406 299.974 358.837 296.38 358.837H91.684C89.9039 358.838 88.1409 358.488 86.496 357.807C84.8511 357.125 83.3565 356.125 82.0978 354.864C80.8391 353.602 79.841 352.105 79.1606 350.456C78.4802 348.808 78.131 347.042 78.1328 345.258V215.988C78.1328 212.387 79.5605 208.933 82.1019 206.386C84.6432 203.84 88.09 202.409 91.684 202.409H296.38C298.16 202.407 299.923 202.757 301.568 203.439C303.213 204.121 304.708 205.121 305.966 206.382C307.225 207.643 308.223 209.141 308.904 210.789C309.584 212.438 309.933 214.204 309.931 215.988Z" fill="#5558FB"/>
<path d="M309.931 215.988V345.258C309.931 348.859 308.504 352.313 305.962 354.859C303.421 357.406 299.974 358.837 296.38 358.837H91.684C89.9039 358.838 88.1409 358.488 86.496 357.807C84.8511 357.125 83.3565 356.125 82.0978 354.864C80.8391 353.602 79.841 352.105 79.1606 350.456C78.4802 348.808 78.131 347.042 78.1328 345.258V215.988C78.1328 212.387 79.5605 208.933 82.1019 206.386C84.6432 203.84 88.09 202.409 91.684 202.409H296.38C298.16 202.407 299.923 202.757 301.568 203.439C303.213 204.121 304.708 205.121 305.966 206.382C307.225 207.643 308.223 209.141 308.904 210.789C309.584 212.438 309.933 214.204 309.931 215.988Z" fill="url(#paint8_linear_11_63)"/>
<path d="M309.931 215.988V345.265C309.933 347.465 309.4 349.633 308.377 351.581C307.354 353.528 305.873 355.196 304.062 356.441C304.028 356.47 303.99 356.496 303.95 356.518C301.924 357.897 299.559 358.692 297.112 358.816C296.868 358.816 296.631 358.816 296.373 358.816H91.6769C89.6883 358.815 87.7244 358.374 85.9261 357.523C85.0739 355.72 84.6334 353.749 84.6365 351.754V222.505C84.6365 218.903 86.0642 215.45 88.6055 212.903C91.1469 210.357 94.5936 208.926 98.1876 208.926H302.884C304.874 208.922 306.841 209.361 308.642 210.211C309.495 212.017 309.935 213.99 309.931 215.988Z" fill="#5558FB"/>
<path d="M27.0999 271.392C27.0999 271.392 3.54572 311.29 6.57799 326.482C9.61027 341.675 78.1328 336.205 78.1328 336.205V299.737H63.5988L70.7229 291.229L27.0999 271.392Z" fill="url(#paint9_linear_11_63)"/>
<path d="M359.424 271.392C359.424 271.392 379.639 316.152 380.231 325.267C380.824 334.382 376.202 338.119 357.597 340.508C338.992 342.897 309.931 340.508 309.931 340.508V295.462L320.046 294.855L315.801 291.208L359.424 271.392Z" fill="url(#paint10_linear_11_63)"/>
<path d="M168.049 163.335C168.049 163.335 167.393 178.765 180.401 188.481C193.408 198.197 208.284 188.796 211.902 182.411C215.519 176.027 220.894 160.507 220.894 160.507L168.049 163.335Z" fill="url(#paint11_linear_11_63)"/>
<path d="M140.333 99.8844C140.333 99.8844 144.961 159.131 180.408 169.783C215.854 180.435 245.591 142.995 248.603 99.8844C251.614 56.7735 223.508 17.6788 185.726 25.6626C147.945 33.6464 135.181 73.8516 140.333 99.8844Z" fill="url(#paint12_linear_11_63)"/>
<path d="M264.545 70.1566C265.374 73.2439 264.545 76.5129 263.541 79.5443C259.977 90.3586 254.336 100.37 246.937 109.014C247.132 107.826 247.299 106.625 247.432 105.43C248.525 95.9357 247.865 86.3204 245.487 77.0647C240.147 74.7387 234.501 81.2556 228.757 80.2428C223.64 79.3697 221.291 73.2579 216.767 70.6805C212.243 68.103 206.311 69.7794 201.843 72.5035C197.375 75.2276 193.387 78.9506 188.48 80.8296C177.243 85.1113 165.044 78.6363 154.769 72.3778L152.783 79.4116C152.58 79.4116 152.378 79.4116 152.183 79.4116L150.963 79.4605C148.782 79.5506 146.681 80.3106 144.945 81.6376C143.21 82.9645 141.923 84.7942 141.26 86.8785C139.008 93.8634 140.312 99.8286 141.434 108.336C141.518 108.965 141.971 111.829 142.18 112.443C135.209 101.002 128.05 85.2021 131.027 72.1683C131.6 70.0985 132.066 68.0002 132.421 65.8818C132.777 62.9132 132.282 59.9167 132.107 56.9341C131.682 49.7257 133.404 41.9934 138.569 36.9503C150.831 25.006 160.876 8.69623 177.083 3.22005C185.223 0.520819 193.824 -0.499398 202.368 0.22086C210.912 0.941119 219.222 3.38695 226.798 7.41101C234.466 11.5321 241.151 17.1899 247.794 22.7778C252.855 27.0736 257.964 31.4322 261.485 37.0201C265.005 42.608 266.775 49.6698 264.531 55.8794C263.625 58.394 262.07 60.8247 262.251 63.486C262.412 65.812 263.924 67.8655 264.545 70.1566Z" fill="#3F3D56"/>
<path opacity="0.24" d="M254.493 91.733C252.464 96.4339 250.345 101.26 247.432 105.43C248.525 95.9357 247.865 86.3204 245.487 77.0647C240.147 74.7387 234.501 81.2556 228.757 80.2428C223.64 79.3697 221.291 73.2579 216.767 70.6804C212.243 68.103 206.311 69.7794 201.843 72.5035C197.375 75.2276 193.387 78.9506 188.48 80.8295C177.327 85.0834 165.205 78.7341 154.978 72.5035C154.47 67.9703 164.466 63.8073 181.105 70.2893C194.754 75.6118 206.897 50.8433 224.463 57.5977C226.464 58.373 227.53 60.713 229.531 61.5023C232.319 62.5919 235.379 61.7258 238.321 61.3067C241.262 60.8876 244.79 61.2298 246.358 63.7654C247.557 65.7072 247.132 68.2148 247.676 70.436C248.219 72.6572 250.994 74.7177 252.618 73.1182C253.196 76.6162 253.385 80.1676 253.182 83.7073C254.198 82.4014 255.53 81.3771 257.051 80.7318C257.546 84.5176 256.006 88.2336 254.493 91.733ZM144.118 79.7539C139.977 88.4431 139.712 103.174 142.194 112.464C140.347 107.938 136.659 99.1929 135.572 94.3943C134.638 90.3221 134.101 85.6631 136.562 82.2824C137.224 81.545 137.793 80.7286 138.256 79.8517C138.487 79.1258 138.634 78.3759 138.695 77.6165C139.078 75.1508 140.856 72.5035 143.344 72.6292C144.352 72.7554 145.311 73.1351 146.133 73.7329C147.631 74.6898 151.932 77.1764 152.204 79.4326L144.118 79.7539Z" fill="white"/>
<path d="M309.68 345.265C309.68 345.265 308.983 352.543 303.811 356.441C303.777 356.47 303.739 356.496 303.699 356.518C301.707 357.963 299.321 358.765 296.861 358.816C296.617 358.816 296.38 358.816 296.122 358.816H91.426C89.4352 358.815 87.4692 358.373 85.6682 357.523C84.8215 355.718 84.3835 353.748 84.3856 351.754V283.881L309.68 345.265Z" fill="url(#paint13_linear_11_63)"/>
<path opacity="0.24" d="M105.479 356.93H85.961L84.6714 338.245V222.505C84.6714 218.903 86.0991 215.45 88.6404 212.903C91.1818 210.357 94.6285 208.926 98.2225 208.926H147.945C147.945 208.926 95.72 209.108 93.3151 220.724C90.9102 232.34 93.3151 348.967 93.3151 348.967C93.3151 348.967 90.8963 355.114 105.479 356.93Z" fill="white"/>
</g>
<defs>
<linearGradient id="paint0_linear_11_63" x1="142.584" y1="113.009" x2="133.87" y2="114.449" gradientUnits="userSpaceOnUse">
<stop stop-color="#ECC4D7"/>
<stop offset="0.16" stop-color="#EDCBD5"/>
<stop offset="0.42" stop-color="#EFD4D1"/>
<stop offset="0.7" stop-color="#F2EAC9"/>
</linearGradient>
<linearGradient id="paint1_linear_11_63" x1="246.588" y1="113.009" x2="255.309" y2="114.449" gradientUnits="userSpaceOnUse">
<stop stop-color="#ECC4D7"/>
<stop offset="0.16" stop-color="#EDCBD5"/>
<stop offset="0.42" stop-color="#EFD4D1"/>
<stop offset="0.7" stop-color="#F2EAC9"/>
</linearGradient>
<linearGradient id="paint2_linear_11_63" x1="199.04" y1="373.33" x2="200.44" y2="519.399" gradientUnits="userSpaceOnUse">
<stop offset="0.01" stop-opacity="0"/>
<stop offset="0.26" stop-color="#0D0D12" stop-opacity="0.21"/>
<stop offset="0.77" stop-color="#2F2E40" stop-opacity="0.75"/>
<stop offset="0.99" stop-color="#3F3D56"/>
</linearGradient>
<linearGradient id="paint3_linear_11_63" x1="185.273" y1="218.468" x2="196.052" y2="-16.4615" gradientUnits="userSpaceOnUse">
<stop offset="0.01" stop-opacity="0"/>
<stop offset="0.26" stop-color="#0D0D12" stop-opacity="0.21"/>
<stop offset="0.77" stop-color="#2F2E40" stop-opacity="0.75"/>
<stop offset="0.99" stop-color="#3F3D56"/>
</linearGradient>
<linearGradient id="paint4_linear_11_63" x1="61.152" y1="348.932" x2="315.257" y2="348.932" gradientUnits="userSpaceOnUse">
<stop offset="0.01" stop-opacity="0"/>
<stop offset="0.26" stop-color="#0D0D12" stop-opacity="0.21"/>
<stop offset="0.77" stop-color="#2F2E40" stop-opacity="0.75"/>
<stop offset="0.99" stop-color="#3F3D56"/>
</linearGradient>
<linearGradient id="paint5_linear_11_63" x1="192.035" y1="406.201" x2="194.653" y2="358.586" gradientUnits="userSpaceOnUse">
<stop stop-color="#68E1FD"/>
<stop offset="1" stop-color="#69B9EB"/>
</linearGradient>
<linearGradient id="paint6_linear_11_63" x1="188.131" y1="369.279" x2="188.53" y2="276.282" gradientUnits="userSpaceOnUse">
<stop offset="0.01" stop-opacity="0"/>
<stop offset="0.26" stop-color="#0D0D12" stop-opacity="0.21"/>
<stop offset="0.77" stop-color="#2F2E40" stop-opacity="0.75"/>
<stop offset="0.99" stop-color="#3F3D56"/>
</linearGradient>
<linearGradient id="paint7_linear_11_63" x1="269.842" y1="338.007" x2="-25.4448" y2="444.591" gradientUnits="userSpaceOnUse">
<stop offset="0.01" stop-opacity="0"/>
<stop offset="0.26" stop-color="#0D0D12" stop-opacity="0.21"/>
<stop offset="0.77" stop-color="#2F2E40" stop-opacity="0.75"/>
<stop offset="0.99" stop-color="#3F3D56"/>
</linearGradient>
<linearGradient id="paint8_linear_11_63" x1="189.923" y1="167.939" x2="197.79" y2="382.829" gradientUnits="userSpaceOnUse">
<stop offset="0.01" stop-opacity="0"/>
<stop offset="0.26" stop-color="#0D0D12" stop-opacity="0.21"/>
<stop offset="0.77" stop-color="#2F2E40" stop-opacity="0.75"/>
<stop offset="0.99" stop-color="#3F3D56"/>
</linearGradient>
<linearGradient id="paint9_linear_11_63" x1="36.2316" y1="429.761" x2="53.2882" y2="145.312" gradientUnits="userSpaceOnUse">
<stop stop-color="#ECC4D7"/>
<stop offset="0.16" stop-color="#EDCBD5"/>
<stop offset="0.42" stop-color="#EFD4D1"/>
<stop offset="0.7" stop-color="#F2EAC9"/>
</linearGradient>
<linearGradient id="paint10_linear_11_63" x1="333.932" y1="498.514" x2="352.927" y2="181.738" gradientUnits="userSpaceOnUse">
<stop stop-color="#ECC4D7"/>
<stop offset="0.16" stop-color="#EDCBD5"/>
<stop offset="0.42" stop-color="#EFD4D1"/>
<stop offset="0.7" stop-color="#F2EAC9"/>
</linearGradient>
<linearGradient id="paint11_linear_11_63" x1="190.843" y1="222.672" x2="199.767" y2="73.7979" gradientUnits="userSpaceOnUse">
<stop stop-color="#ECC4D7"/>
<stop offset="0.16" stop-color="#EDCBD5"/>
<stop offset="0.42" stop-color="#EFD4D1"/>
<stop offset="0.7" stop-color="#F2EAC9"/>
</linearGradient>
<linearGradient id="paint12_linear_11_63" x1="194.914" y1="3.79282" x2="192.478" y2="243.271" gradientUnits="userSpaceOnUse">
<stop stop-color="#ECC4D7"/>
<stop offset="0.16" stop-color="#EDCBD5"/>
<stop offset="0.42" stop-color="#EFD4D1"/>
<stop offset="0.7" stop-color="#F2EAC9"/>
</linearGradient>
<linearGradient id="paint13_linear_11_63" x1="207.35" y1="239.45" x2="138.966" y2="735.531" gradientUnits="userSpaceOnUse">
<stop offset="0.01" stop-opacity="0"/>
<stop offset="0.26" stop-color="#0D0D12" stop-opacity="0.21"/>
<stop offset="0.77" stop-color="#2F2E40" stop-opacity="0.75"/>
<stop offset="0.99" stop-color="#3F3D56"/>
</linearGradient>
<clipPath id="clip0_11_63">
<rect width="471" height="417" fill="white" transform="translate(-38)"/>
</clipPath>
</defs>
</svg>
